<?xml version="1.0" encoding="utf-8"?>
<!-- Generator: Adobe Illustrator 15.1.0, SVG Export Plug-In . SVG Version: 6.00 Build 0)  -->
<!DOCTYPE svg PUBLIC "-//W3C//DTD SVG 1.1//EN" "http://www.w3.org/Graphics/SVG/1.1/DTD/svg11.dtd">
<svg version="1.1" id="Layer_1" xmlns="http://www.w3.org/2000/svg" xmlns:xlink="http://www.w3.org/1999/xlink" x="0px" y="0px"
	 width="792px" height="612px" viewBox="0 0 792 612" enable-background="new 0 0 792 612" xml:space="preserve">
<path fill-rule="evenodd" clip-rule="evenodd" stroke="#000000" stroke-width="2.9999" stroke-linecap="round" stroke-linejoin="round" stroke-miterlimit="22.9256" d="
	M481.023,100.192c-0.631,0.005-1.264,0.012-1.903,0.021c-35.326,0.53-84.429,7.743-122.228,20.534
	c-37.799,12.792-64.294,31.162-85.489,56.596c-21.196,25.435-37.093,57.935-47.868,81.427
	c-10.774,23.492-16.427,37.976-20.843,45.747c-4.416,7.772-7.595,8.833-36.386,22.08s-83.193,38.683-109.006,56.875
	c-25.814,18.193-23.039,29.144-15.797,40.448s18.95,22.963,40.878,32.324s54.074,16.426,85.338,19.782
	c31.264,3.355,61.644,3.003,104.212-3.709c42.567-6.712,97.324-19.782,140.421-25.259c43.099-5.475,74.538-3.355,101.739-0.353
	c16.451,1.816,31.352,3.955,45.209,6.533c2.477,2.017,5.019,4.062,7.627,6.137c42.392,33.737,101.816,75.268,138.589,88.609
	s50.894-1.506,50.981-21.288c0.089-19.783-13.856-44.501-22.241-67.37c-3.708-10.113-6.328-19.865-8.87-29.354
	c5.655-22.99,10.119-54.26,9.672-82.004c-0.53-32.854-7.949-60.762-18.547-86.55s-24.375-49.457-39.389-68.533
	s-31.263-33.56-51.399-46.277c-14.103-8.907-30.112-16.948-46.269-23.904c6.773-2.159,13.219-4.548,18.085-7.116
	c12.461-6.574,14.581-14.316,13.521-21.028c-1.061-6.712-5.299-12.394-15.234-9.494c-9.936,2.9-25.567,14.381-39.742,18.546
	c-14.175,4.166-26.892,1.016-37.622-8.61S498.99,69.273,488.26,62.987c-10.73-6.286-23.448-2.754-22.213,8.992
	C466.857,79.671,473.651,90.886,481.023,100.192z"/>
</svg>
